:SAMPLES-PER-SECOND 30
:FULLY-SPECIFIED
:DEGREES
328
root  9.99935 39.6115 -12.6846 10.1924 52.3505 6.40076
RightUpLeg  11.1868 -17.7178 -22.1171
RightLeg  5.95539 -40.5742 3.99048
RightFoot  -0.386954 -1.72831 17.8265
RightToes  0.000482159 0.542163 -0.142577
Spine  7.70777 0.333266 6.06215
Spine1  8.6688 3.10791 -8.66028
HEad  -10.9708 28.6162 -12.7697
LeftShoulder1  9.77836 -13.8191 -49.2841
LeftArm  -6.85616 27.0069 -21.5245
LeftForeArm  21.8429 -14.1931 -4.89061
LeftHand  -0.25398 0.0180481 5.50724
RightShoulder  5.57533 10.0449 35.1855
RightArm  0.929249 -11.4301 32.1713
RightForeArm  -9.23743 29.7404 6.95967
RightHand  -2.00987 5.56734 -21.4345
LeftUpLeg  -20.6017 27.5791 -3.24217
LeftLeg  12.5753 29.6103 -0.553603
LeftFoot  0.566869 -0.380067 3.60815
LeftToes  1.06248e-005 4.65854e-005 -8.185e-006
329
root  11.2081 39.3408 -12.7975 13.1105 56.5159 10.5403
RightUpLeg  13.4565 -24.1746 -27.8286
RightLeg  11.875 -36.9672 -0.359929
RightFoot  0.660485 -1.94903 18.5017
RightToes  0.000482159 0.542163 -0.142577
Spine  8.49408 0.110236 3.87717
Spine1  8.80141 2.80866 -8.60028
HEad  -13.171 25.2952 -10.6317
LeftShoulder1  9.93703 -13.9995 -49.5668
LeftArm  -6.25115 26.9502 -20.4348
LeftForeArm  22.2228 -14.0158 -4.99297
LeftHand  -0.25398 0.0180481 5.50724
RightShoulder  5.51931 9.99382 34.9305
RightArm  -1.88639 -13.9947 33.3997
RightForeArm  -8.1912 32.4071 7.60006
RightHand  -2.22291 6.12641 -22.5084
LeftUpLeg  -22.7055 34.6828 -10.7188
LeftLeg  15.777 16.7554 2.0021
LeftFoot  -0.732959 -0.409097 4.47875
LeftToes  1.06248e-005 4.65854e-005 -8.185e-006
330
root  12.4233 39.1843 -12.9604 16.0526 60.576 14.6498
RightUpLeg  14.5965 -33.8143 -33.3552
RightLeg  18.9095 -26.1551 -6.64521
RightFoot  3.05338 -1.6328 13.1399
RightToes  0.000482159 0.542163 -0.142577
Spine  9.4859 -0.0400933 2.94471
Spine1  8.80705 2.7297 -8.82233
HEad  -14.497 21.3628 -8.87869
LeftShoulder1  10.1538 -14.1681 -50.1635
LeftArm  -5.72117 25.723 -18.9684
LeftForeArm  22.3579 -13.1266 -5.30696
LeftHand  -0.25398 0.0180481 5.50724
RightShoulder  5.46355 9.87461 34.8796
RightArm  -2.85388 -15.9403 34.2772
RightForeArm  -8.3351 33.1632 7.81542
RightHand  -2.50815 6.80951 -23.9477
LeftUpLeg  -22.2995 36.154 -14.6833
LeftLeg  17.59 10.3727 3.14278
LeftFoot  -3.31583 -0.367615 5.51035
LeftToes  1.06248e-005 4.65854e-005 -8.185e-006
331
root  13.5404 39.111 -13.1232 18.3151 64.0986 17.6102
RightUpLeg  11.7641 -31.914 -32.738
RightLeg  26.3379 -18.8924 -10.4375
RightFoot  4.79689 -0.871087 6.2871
RightToes  0.000482159 0.542163 -0.142577
Spine  10.3893 -0.0287366 2.91031
Spine1  8.62439 2.79807 -8.92613
HEad  -14.8535 17.7752 -7.59982
LeftShoulder1  10.2484 -14.1848 -50.5787
LeftArm  -5.97171 23.8687 -18.2104
LeftForeArm  22.6229 -12.0519 -5.55495
LeftHand  -0.25398 0.0180481 5.50724
RightShoulder  5.53382 9.9272 35.2354
RightArm  -1.61741 -16.7266 34.2773
RightForeArm  -7.9523 31.8351 7.43898
RightHand  -2.50198 6.7511 -23.9831
LeftUpLeg  -20.3671 35.2418 -15.4398
LeftLeg  18.8513 8.05999 3.27141
LeftFoot  -5.8349 -0.232831 5.53491
LeftToes  1.06248e-005 4.65854e-005 -8.185e-006
332
root  14.5112 39.0632 -13.2187 20.4662 67.1803 20.1171
RightUpLeg  6.69739 -23.0709 -28.5361
RightLeg  34.7313 -12.9669 -9.65156
RightFoot  3.77947 -0.371458 2.99324
RightToes  0.000482159 0.542163 -0.142577
Spine  11.1153 0.0544104 2.55926
Spine1  8.60003 2.69371 -8.4547
HEad  -14.9372 15.0015 -6.78219
LeftShoulder1  10.2256 -14.1641 -50.5258
LeftArm  -6.73373 21.9322 -18.4962
LeftForeArm  22.5116 -11.7279 -5.54499
LeftHand  -0.25398 0.0180481 5.50724
RightShoulder  5.71667 10.2015 35.7356
RightArm  0.764681 -16.4804 33.8863
RightForeArm  -6.56855 29.4218 6.74301
RightHand  -2.06928 5.47916 -22.1785
LeftUpLeg  -18.4036 33.8277 -15.1334
LeftLeg  19.8541 6.61087 2.9485
LeftFoot  -7.61097 -0.110431 4.79983
LeftToes  1.06248e-005 4.65854e-005 -8.185e-006
333
root  15.3978 39.0446 -13.2272 23.4705 70.1367 23.4444
RightUpLeg  1.89065 -17.3816 -25.0492
RightLeg  42.4375 -6.23321 -6.40012
RightFoot  1.26128 -0.327124 3.0651
RightToes  0.000482159 0.542163 -0.142577
Spine  11.6631 0.048747 1.45913
Spine1  9.0637 2.22901 -7.36492
HEad  -15.2395 12.8671 -6.38956
LeftShoulder1  10.2234 -14.2657 -50.2291
LeftArm  -7.10295 19.8997 -19.1618
LeftForeArm  21.7626 -12.4047 -5.4391
LeftHand  -0.25398 0.0180481 5.50724
RightShoulder  5.8644 10.4661 35.9971
RightArm  2.57338 -15.7824 33.918
RightForeArm  -5.50263 27.1994 6.14483
RightHand  -1.57222 3.73955 -20.1443
LeftUpLeg  -16.2997 31.5191 -14.5355
LeftLeg  20.4292 5.85671 2.57765
LeftFoot  -8.89148 -0.0367911 4.24017
LeftToes  1.06248e-005 4.65854e-005 -8.185e-006
334
root  16.2945 39.116 -13.1886 26.9095 73.0427 27.2525
RightUpLeg  -2.77293 -14.0344 -21.9184
RightLeg  48.7774 -3.88836 -5.15983
RightFoot  -0.364378 -0.373465 3.84931
RightToes  0.000482159 0.542163 -0.142577
Spine  12.1644 -0.10358 0.333599
Spine1  9.6774 1.52278 -5.95825
HEad  -15.6229 11.1376 -6.21689
LeftShoulder1  10.2684 -14.4425 -49.9555
LeftArm  -6.65994 17.5624 -19.6196
LeftForeArm  20.9545 -13.5922 -5.36716
LeftHand  -0.25398 0.0180481 5.50724
RightShoulder  5.89977 10.5249 36.0711
RightArm  3.02746 -15.199 34.3625
RightForeArm  -5.93955 25.939 5.87103
RightHand  -1.37288 2.7413 -19.7108
LeftUpLeg  -13.4968 28.2621 -13.3633
LeftLeg  20.0534 6.28633 2.04464
LeftFoot  -9.84239 0.00720102 3.98131
LeftToes  1.06248e-005 4.65854e-005 -8.185e-006
335
root  17.2157 39.2896 -13.1415 29.6202 75.752 30.302
RightUpLeg  -7.37501 -11.9534 -18.6551
RightLeg  52.5198 -4.87124 -7.16509
RightFoot  -1.20503 -0.310178 3.38863
RightToes  0.000482159 0.542163 -0.142577
Spine  12.8844 -0.383522 -0.214533
Spine1  9.85586 0.771497 -4.47275
HEad  -15.8752 9.85753 -5.94192
LeftShoulder1  10.2707 -14.5474 -49.6778
LeftArm  -5.71678 15.0136 -19.897
LeftForeArm  20.5718 -14.9495 -5.2432
LeftHand  -0.25398 0.0180481 5.50724
RightShoulder  5.88951 10.4439 36.2379
RightArm  2.63068 -14.9326 34.7027
RightForeArm  -7.05756 25.7907 5.89299
RightHand  -1.48098 2.96371 -20.6539
LeftUpLeg  -10.0751 24.553 -11.4609
LeftLeg  18.5921 7.60298 1.04023
LeftFoot  -10.2669 0.0276798 3.6427
LeftToes  1.06248e-005 4.65854e-005 -8.185e-006
336
root  18.0972 39.437 -13.0735 32.6748 78.0282 33.7048
RightUpLeg  -11.8786 -10.3521 -15.7101
RightLeg  53.3968 -6.34838 -9.45952
RightFoot  -2.10075 -0.195056 2.24413
RightToes  0.000482159 0.542163 -0.142577
Spine  14.0524 -0.66395 -0.946152
Spine1  9.58334 -0.0222663 -3.04407
HEad  -16.1017 9.06501 -5.45824
LeftShoulder1  10.2183 -14.5818 -49.3309
LeftArm  -4.70234 12.452 -20.1523
LeftForeArm  20.3157 -16.4839 -4.97776
LeftHand  -0.25398 0.0180481 5.50724
RightShoulder  5.90463 10.4123 36.4371
RightArm  1.99765 -14.8616 34.8433
RightForeArm  -7.363 26.485 6.07044
RightHand  -1.68123 3.71831 -21.5178
LeftUpLeg  -6.95552 20.8526 -9.70377
LeftLeg  17.1464 9.09865 -0.102062
LeftFoot  -10.4849 0.0387318 3.25725
LeftToes  1.06248e-005 4.65854e-005 -8.185e-006
337
root  18.945 39.4878 -12.9784 38.5235 79.9455 40.0227
RightUpLeg  -15.8092 -9.3813 -13.6583
RightLeg  51.3943 -6.82616 -9.45003
RightFoot  -2.51079 -0.202429 2.39538
RightToes  0.000482159 0.542163 -0.142577
Spine  15.5812 -0.951204 -2.22391
Spine1  9.2332 -0.929248 -1.68967
HEad  -16.4564 8.50162 -4.93596
LeftShoulder1  10.2264 -14.6965 -49.0589
LeftArm  -3.81872 9.76037 -20.2589
LeftForeArm  19.8365 -18.0029 -4.65906
LeftHand  -0.25398 0.0180481 5.50724
RightShoulder  5.95018 10.5091 36.4682
RightArm  1.30538 -14.8049 34.9299
RightForeArm  -6.84774 27.6722 6.3273
RightHand  -1.78123 4.13078 -21.8089
LeftUpLeg  -4.41003 17.2436 -8.69802
LeftLeg  16.402 10.492 -0.84385
LeftFoot  -11.0643 0.059281 3.04453
LeftToes  1.06248e-005 4.65854e-005 -8.185e-006
338
root  19.8109 39.48 -12.8809 48.0775 81.6297 50.1226
RightUpLeg  -18.9136 -9.40864 -12.2259
RightLeg  46.8451 -6.70787 -7.92624
RightFoot  -2.11635 -0.296827 3.49731
RightToes  0.000482159 0.542163 -0.142577
Spine  17.134 -1.30244 -3.3236
Spine1  9.12703 -1.82485 -0.583636
HEad  -16.9111 7.84299 -4.50477
LeftShoulder1  10.3715 -14.9803 -48.9903
LeftArm  -3.0947 6.61732 -20.0704
LeftForeArm  19.358 -19.0901 -4.45346
LeftHand  -0.25398 0.0180481 5.50724
RightShoulder  6.02955 10.6852 36.4988
RightArm  0.79646 -14.5693 34.7456
RightForeArm  -6.45364 29.0073 6.63322
RightHand  -1.7984 4.14091 -21.9879
LeftUpLeg  -2.05015 14.2055 -8.18246
LeftLeg  15.979 11.2957 -1.18131
LeftFoot  -12.1139 0.0906625 2.71305
LeftToes  1.06248e-005 4.65854e-005 -8.185e-006
